<svg
                  width="25"
                  height="33"
                  viewBox="0 0 25 33"
                  fill="none"
                  xmlns="http://www.w3.org/2000/svg"
                >
                  <path
                    d="M12.4219 0.730469C5.80387 0.730469 0.421875 6.11247 0.421875 12.7305C0.421875 23.0845 11.3239 32.1245 11.7899 32.5045C11.968 32.6507 12.1914 32.7307 12.4219 32.7307C12.6524 32.7307 12.8757 32.6507 13.0539 32.5045C13.5219 32.1245 24.4219 23.0845 24.4219 12.7305C24.4219 6.11247 19.0399 0.730469 12.4219 0.730469ZM12.4219 30.4025C10.1299 28.3385 2.42188 20.7905 2.42188 12.7305C2.42188 7.21647 6.90788 2.73047 12.4219 2.73047C17.9359 2.73047 22.4219 7.21647 22.4219 12.7305C22.4219 20.7765 14.7119 28.3365 12.4219 30.4025Z"
                    fill="#033318"
                  />
                  <g clip-path="url(#clip0_1707_24802)">
                    <rect
                      x="6.42188"
                      y="6.73047"
                      width="12"
                      height="12"
                      rx="6"
                      fill="url(#paint0_linear_1707_24802)"
                    />
                    <path
                      d="M12.4219 6.73047C9.11387 6.73047 6.42188 9.42247 6.42188 12.7305C6.42188 16.0385 9.11387 18.7305 12.4219 18.7305C15.7299 18.7305 18.4219 16.0385 18.4219 12.7305C18.4219 9.42247 15.7299 6.73047 12.4219 6.73047ZM12.4219 16.7305C10.2159 16.7305 8.42188 14.9365 8.42188 12.7305C8.42188 10.5245 10.2159 8.73047 12.4219 8.73047C14.6279 8.73047 16.4219 10.5245 16.4219 12.7305C16.4219 14.9365 14.6279 16.7305 12.4219 16.7305Z"
                      fill="#076D34"
                    />
                  </g>
                  <defs>
                    <linearGradient
                      id="paint0_linear_1707_24802"
                      x1="12.4219"
                      y1="6.73047"
                      x2="12.4219"
                      y2="18.7305"
                      gradientUnits="userSpaceOnUse"
                    >
                      <stop stop-color="#5BDB70" />
                      <stop offset="1" stop-color="#0C963B" />
                    </linearGradient>
                    <clipPath id="clip0_1707_24802">
                      <rect
                        x="6.42188"
                        y="6.73047"
                        width="12"
                        height="12"
                        rx="6"
                        fill="white"
                      />
                    </clipPath>
                  </defs>
                </svg>