 <svg
                xmlns="http://www.w3.org/2000/svg"
                width="59"
                height="60"
                viewBox="0 0 59 60"
                fill="none"
              >
                <path
                  d="M31.1328 36.9531H23.1328C22.5805 36.9531 22.1328 37.4008 22.1328 37.9531C22.1328 38.5054 22.5805 38.9531 23.1328 38.9531H31.1328C31.6851 38.9531 32.1328 38.5054 32.1328 37.9531C32.1328 37.4008 31.6851 36.9531 31.1328 36.9531Z"
                  fill="#033318"
                  stroke="#6A6A6A"
                  stroke-width="0.5"
                />
                <path
                  d="M25.1328 32.6406H23.1328C22.5805 32.6406 22.1328 33.0883 22.1328 33.6406C22.1328 34.1929 22.5805 34.6406 23.1328 34.6406H25.1328C25.6851 34.6406 26.1328 34.1929 26.1328 33.6406C26.1328 33.0883 25.6851 32.6406 25.1328 32.6406Z"
                  fill="#033318"
                  stroke="#6A6A6A"
                  stroke-width="0.5"
                />
                <path
                  d="M39.9606 44.1719H20.3106C19.4699 44.1719 18.6636 43.8379 18.0691 43.2434C17.4746 42.6489 17.1406 41.8426 17.1406 41.0019V21.3419C17.1406 20.5011 17.4746 19.6948 18.0691 19.1003C18.6636 18.5059 19.4699 18.1719 20.3106 18.1719H31.1306C31.2619 18.1719 31.392 18.1977 31.5133 18.248C31.6346 18.2983 31.7449 18.3719 31.8377 18.4648C31.9306 18.5576 32.0042 18.6679 32.0545 18.7892C32.1048 18.9105 32.1306 19.0406 32.1306 19.1719C32.1306 19.4371 32.0253 19.6914 31.8377 19.879C31.6502 20.0665 31.3958 20.1719 31.1306 20.1719H20.3106C20.1561 20.1706 20.0029 20.1998 19.8598 20.258C19.7167 20.3163 19.5865 20.4022 19.4768 20.511C19.3671 20.6198 19.2801 20.7492 19.2206 20.8918C19.1612 21.0344 19.1306 21.1874 19.1306 21.3419V40.9919C19.1332 41.3014 19.2573 41.5975 19.4762 41.8163C19.6951 42.0352 19.9911 42.1593 20.3006 42.1619H39.9606C40.2701 42.1593 40.5662 42.0352 40.7851 41.8163C41.0039 41.5975 41.128 41.3014 41.1306 40.9919V30.1719C41.1306 29.9067 41.236 29.6523 41.4235 29.4648C41.6111 29.2772 41.8654 29.1719 42.1306 29.1719C42.3958 29.1719 42.6502 29.2772 42.8377 29.4648C43.0253 29.6523 43.1306 29.9067 43.1306 30.1719V40.9919C43.1319 41.409 43.0509 41.8223 42.8922 42.2081C42.7335 42.5938 42.5002 42.9444 42.2057 43.2399C41.9112 43.5353 41.5613 43.7697 41.176 43.9296C40.7908 44.0896 40.3778 44.1719 39.9606 44.1719Z"
                  fill="#033318"
                />
                <circle cx="40.4609" cy="21.7305" r="6" fill="#076D34" />
              </svg>