<svg xmlns="http://www.w3.org/2000/svg" width="12" height="13" viewBox="0 0 12 13" fill="none">
  <path d="M8.6224 5.91732H3.3724C3.21769 5.91732 3.06931 5.85586 2.95992 5.74646C2.85052 5.63707 2.78906 5.48869 2.78906 5.33398V3.29232C2.78906 2.44142 3.12708 1.62536 3.72876 1.02368C4.33044 0.422004 5.14649 0.0839844 5.9974 0.0839844C6.8483 0.0839844 7.66435 0.422004 8.26603 1.02368C8.86771 1.62536 9.20573 2.44142 9.20573 3.29232V5.33398C9.20573 5.48869 9.14427 5.63707 9.03487 5.74646C8.92548 5.85586 8.77711 5.91732 8.6224 5.91732ZM3.95573 4.75065H8.03906V3.29232C8.03906 2.75083 7.82396 2.23153 7.44107 1.84864C7.05819 1.46575 6.53888 1.25065 5.9974 1.25065C5.45591 1.25065 4.93661 1.46575 4.55372 1.84864C4.17083 2.23153 3.95573 2.75083 3.95573 3.29232V4.75065Z" fill="black"/>
  <path d="M8.91667 4.75H3.08333C2.46468 4.75062 1.87155 4.99665 1.4341 5.4341C0.996649 5.87155 0.750618 6.46468 0.75 7.08333V10.5833C0.750618 11.202 0.996649 11.7951 1.4341 12.2326C1.87155 12.67 2.46468 12.916 3.08333 12.9167H8.91667C9.53532 12.916 10.1284 12.67 10.5659 12.2326C11.0034 11.7951 11.2494 11.202 11.25 10.5833V7.08333C11.2494 6.46468 11.0034 5.87155 10.5659 5.4341C10.1284 4.99665 9.53532 4.75062 8.91667 4.75ZM6 9.41667C5.76926 9.41667 5.54369 9.34824 5.35183 9.22005C5.15998 9.09185 5.01044 8.90964 4.92214 8.69646C4.83384 8.48328 4.81073 8.24871 4.85575 8.02239C4.90077 7.79608 5.01188 7.5882 5.17504 7.42504C5.3382 7.26188 5.54608 7.15077 5.77239 7.10575C5.99871 7.06073 6.23328 7.08384 6.44646 7.17214C6.65964 7.26044 6.84185 7.40998 6.97005 7.60184C7.09824 7.79369 7.16667 8.01926 7.16667 8.25C7.16667 8.55942 7.04375 8.85617 6.82496 9.07496C6.60616 9.29375 6.30942 9.41667 6 9.41667Z" fill="#A9A9A9"/>
</svg>