<svg xmlns="http://www.w3.org/2000/svg" width="14" height="15" viewBox="0 0 14 15" fill="none">
  <g clip-path="url(#clip0_2395_3394)">
    <path d="M7 9.75L9.25 7.5M9.25 7.5L7 5.25M9.25 7.5H1M4.75 3.93644V3.90015C4.75 3.06007 4.75 2.63972 4.91349 2.31885C5.0573 2.0366 5.2866 1.8073 5.56885 1.66349C5.88972 1.5 6.31007 1.5 7.15015 1.5H10.6001C11.4402 1.5 11.8597 1.5 12.1805 1.66349C12.4628 1.8073 12.6929 2.0366 12.8367 2.31885C13 2.6394 13 3.05925 13 3.89768V11.1027C13 11.9411 13 12.3604 12.8367 12.6809C12.6929 12.9632 12.4628 13.1929 12.1805 13.3367C11.86 13.5 11.4408 13.5 10.6023 13.5H7.14768C6.30925 13.5 5.8894 13.5 5.56885 13.3367C5.2866 13.1929 5.0573 12.9629 4.91349 12.6807C4.75 12.3598 4.75 11.9401 4.75 11.1V11.0625" stroke="#A9A9A9" stroke-width="1.2" stroke-linecap="round" stroke-linejoin="round"/>
  </g>
  <defs>
    <clipPath id="clip0_2395_3394">
      <rect width="14" height="14" fill="white" transform="translate(0 0.5)"/>
    </clipPath>
  </defs>
</svg>