<svg
                  xmlns="http://www.w3.org/2000/svg"
                  width="37"
                  height="37"
                  viewBox="0 0 37 37"
                  fill="none"
                >
                  <path
                    d="M3.61296 18.7304C3.61255 15.9136 4.40543 13.1536 5.90079 10.7665C7.39616 8.37934 9.53356 6.46158 12.0682 5.23281C14.6029 4.00404 17.4324 3.51392 20.2327 3.81858C23.033 4.12324 25.6909 5.21037 27.9021 6.95546H25.6203C25.4227 6.95738 25.2338 7.03724 25.0947 7.17768C24.9556 7.31812 24.8776 7.50779 24.8776 7.70545C24.8776 7.90311 24.9556 8.09278 25.0947 8.23322C25.2338 8.37367 25.4227 8.45353 25.6203 8.45544H29.8629C30.0618 8.45544 30.2526 8.37642 30.3933 8.23576C30.5339 8.09511 30.613 7.90433 30.613 7.70542V3.46269C30.611 3.26504 30.5312 3.07613 30.3907 2.93704C30.2503 2.79795 30.0606 2.71993 29.863 2.71993C29.6653 2.71993 29.4756 2.79795 29.3352 2.93704C29.1947 3.07613 29.1149 3.26504 29.113 3.46269V6.00238C25.8426 3.30458 21.6593 1.9691 17.4308 2.27292C13.2022 2.57675 9.25278 4.49657 6.40171 7.63419C3.55064 10.7718 2.01669 14.8865 2.118 19.1248C2.21931 23.363 3.94811 27.3997 6.94584 30.3975C7.08702 30.5355 7.27691 30.6122 7.47431 30.6111C7.67171 30.6099 7.8607 30.531 8.00029 30.3914C8.13987 30.2518 8.21879 30.0629 8.21993 29.8655C8.22107 29.6681 8.14433 29.4782 8.00636 29.337C6.60913 27.9473 5.50138 26.2944 4.74726 24.4738C3.99313 22.6531 3.60759 20.701 3.61296 18.7304ZM12.0578 32.2271C11.63 32.0189 11.2124 31.7906 10.8062 31.543C10.6364 31.4394 10.4324 31.4075 10.2391 31.4542C10.0458 31.501 9.87896 31.6226 9.77532 31.7924C9.67168 31.9622 9.63973 32.1662 9.6865 32.3595C9.73326 32.5528 9.85491 32.7197 10.0247 32.8233C10.4717 33.096 10.9315 33.3472 11.4024 33.5762C11.491 33.6192 11.5872 33.6444 11.6855 33.6503C11.7838 33.6561 11.8823 33.6426 11.9754 33.6104C12.0684 33.5782 12.1543 33.528 12.2279 33.4626C12.3016 33.3972 12.3616 33.318 12.4047 33.2294C12.4477 33.1408 12.4729 33.0446 12.4788 32.9463C12.4846 32.848 12.4711 32.7495 12.4389 32.6564C12.4067 32.5634 12.3565 32.4776 12.2911 32.4039C12.2257 32.3302 12.1465 32.2702 12.0579 32.2271H12.0578ZM32.1162 12.1892C32.1592 12.2778 32.2191 12.3571 32.2927 12.4226C32.3663 12.4881 32.4521 12.5384 32.5451 12.5707C32.6382 12.603 32.7367 12.6167 32.835 12.611C32.9333 12.6052 33.0295 12.5802 33.1182 12.5372C33.2068 12.4943 33.2861 12.4343 33.3516 12.3607C33.4171 12.2871 33.4674 12.2014 33.4997 12.1083C33.532 12.0153 33.5457 11.9168 33.54 11.8185C33.5342 11.7201 33.5092 11.6239 33.4662 11.5353C33.238 11.0643 32.9875 10.6044 32.7155 10.1571C32.6643 10.073 32.597 9.99973 32.5175 9.94157C32.438 9.88341 32.3478 9.84148 32.2521 9.81817C32.0588 9.77109 31.8548 9.80273 31.6848 9.90613C31.5148 10.0095 31.3929 10.1762 31.3458 10.3695C31.2987 10.5628 31.3304 10.7669 31.4338 10.9368C31.6809 11.3433 31.9086 11.7612 32.1162 12.1892ZM20.3923 33.6253C19.9188 33.6816 19.4398 33.7151 18.9682 33.7265C18.7729 33.7339 18.5882 33.8174 18.4535 33.959C18.3188 34.1006 18.2447 34.2892 18.2469 34.4846C18.2492 34.68 18.3277 34.8668 18.4656 35.0053C18.6036 35.1437 18.7902 35.2228 18.9856 35.2257C18.9914 35.2257 18.9977 35.2257 19.0035 35.2254C19.5221 35.2133 20.0483 35.1762 20.5683 35.1148C20.7657 35.0913 20.9457 34.9904 21.0687 34.8342C21.1917 34.6781 21.2477 34.4795 21.2244 34.2821C21.2011 34.0847 21.1004 33.9046 20.9445 33.7814C20.7885 33.6582 20.59 33.602 20.3925 33.6251L20.3923 33.6253ZM16.1239 33.5235C15.6546 33.4451 15.1893 33.3442 14.7297 33.2212C14.5375 33.1698 14.3327 33.1969 14.1605 33.2965C13.9883 33.3961 13.8626 33.56 13.8113 33.7522C13.7599 33.9444 13.787 34.1492 13.8866 34.3214C13.9861 34.4937 14.1501 34.6193 14.3423 34.6707C14.8483 34.8057 15.3605 34.9166 15.8771 35.0028C15.9742 35.019 16.0736 35.016 16.1696 34.9938C16.2655 34.9715 16.3562 34.9307 16.4363 34.8734C16.5165 34.8162 16.5845 34.7437 16.6367 34.6602C16.6888 34.5766 16.724 34.4836 16.7402 34.3865C16.7564 34.2893 16.7533 34.1899 16.7311 34.094C16.7089 33.998 16.668 33.9074 16.6108 33.8272C16.5536 33.7471 16.4811 33.679 16.3976 33.6269C16.314 33.5747 16.221 33.5395 16.1239 33.5233V33.5235ZM34.3765 18.3688C34.1777 18.364 33.9851 18.4383 33.841 18.5754C33.6969 18.7125 33.6132 18.9012 33.6082 19.1C33.5961 19.5761 33.5617 20.0514 33.5053 20.5242C33.4818 20.7218 33.5376 20.9205 33.6606 21.0769C33.7836 21.2332 33.9636 21.3344 34.1611 21.3581C34.191 21.3614 34.2211 21.3631 34.2512 21.3632C34.4345 21.3629 34.6114 21.2955 34.7484 21.1738C34.8854 21.052 34.9732 20.8843 34.995 20.7023C35.0568 20.1827 35.0943 19.6605 35.1075 19.1375C35.11 19.039 35.0931 18.941 35.0577 18.849C35.0223 18.7571 34.9691 18.6731 34.9012 18.6017C34.8334 18.5303 34.7521 18.473 34.662 18.433C34.572 18.3931 34.475 18.3712 34.3765 18.3688ZM32.0745 26.9475C31.9099 26.8359 31.7077 26.7942 31.5124 26.8315C31.3171 26.8687 31.1445 26.982 31.0326 27.1463C30.7649 27.5401 30.4789 27.921 30.1753 28.2878C30.1109 28.3634 30.0623 28.4511 30.0321 28.5457C30.002 28.6403 29.9909 28.7399 29.9996 28.8389C30.0082 28.9378 30.0365 29.034 30.0826 29.1219C30.1287 29.2098 30.1919 29.2877 30.2684 29.351C30.3449 29.4143 30.4331 29.4618 30.5281 29.4907C30.6231 29.5197 30.7229 29.5294 30.8217 29.5195C30.9205 29.5095 31.0163 29.4801 31.1036 29.4328C31.1909 29.3855 31.268 29.3213 31.3303 29.244C31.6643 28.8409 31.979 28.422 32.2732 27.989C32.3286 27.9076 32.3673 27.816 32.3873 27.7196C32.4073 27.6232 32.408 27.5238 32.3896 27.4271C32.3711 27.3304 32.3338 27.2382 32.2797 27.1559C32.2257 27.0737 32.1559 27.0028 32.0745 26.9475ZM33.1079 14.861C33.2302 15.3209 33.3305 15.7862 33.4086 16.2556C33.4376 16.4306 33.5278 16.5898 33.6631 16.7046C33.7984 16.8195 33.9701 16.8826 34.1476 16.8829C34.1889 16.8828 34.2302 16.8794 34.271 16.8726C34.3681 16.8565 34.4612 16.8214 34.5448 16.7693C34.6284 16.7172 34.7009 16.6492 34.7582 16.5691C34.8155 16.4889 34.8565 16.3983 34.8788 16.3023C34.901 16.2064 34.9042 16.107 34.888 16.0098C34.8023 15.4933 34.692 14.9811 34.5576 14.475C34.5064 14.2828 34.3809 14.1188 34.2088 14.0191C34.0367 13.9194 33.832 13.8921 33.6398 13.9433C33.4476 13.9945 33.2836 14.1199 33.1839 14.292C33.0841 14.4642 33.0569 14.6688 33.1081 14.861H33.1079ZM28.1575 30.3031C27.7908 30.6064 27.4099 30.8921 27.016 31.1593C26.9345 31.2145 26.8647 31.2853 26.8105 31.3676C26.7564 31.4498 26.7189 31.5419 26.7004 31.6386C26.6818 31.7353 26.6825 31.8348 26.7023 31.9312C26.7222 32.0277 26.7609 32.1193 26.8161 32.2008C26.8714 32.2823 26.9421 32.3521 27.0244 32.4063C27.1066 32.4605 27.1987 32.4979 27.2955 32.5164C27.3922 32.535 27.4916 32.5344 27.588 32.5145C27.6845 32.4946 27.7761 32.456 27.8576 32.4007C28.2908 32.107 28.7098 31.7929 29.1133 31.4596C29.2667 31.3328 29.3634 31.1503 29.3822 30.9523C29.4011 30.7542 29.3404 30.5568 29.2137 30.4034C29.0869 30.2501 28.9044 30.1533 28.7064 30.1345C28.5083 30.1157 28.3109 30.1763 28.1575 30.3031ZM33.8414 22.8236C33.6519 22.7634 33.4463 22.7809 33.2697 22.8721C33.093 22.9633 32.9598 23.1209 32.8992 23.3103C32.7545 23.7634 32.5881 24.2093 32.4008 24.6466C32.3599 24.7374 32.3375 24.8355 32.3349 24.9351C32.3323 25.0346 32.3496 25.1337 32.3857 25.2266C32.4219 25.3194 32.4761 25.4041 32.5454 25.4757C32.6146 25.5473 32.6974 25.6044 32.7889 25.6437C32.8805 25.683 32.979 25.7036 33.0786 25.7044C33.1782 25.7052 33.2769 25.6861 33.3691 25.6483C33.4613 25.6105 33.545 25.5547 33.6153 25.4842C33.6857 25.4137 33.7413 25.3299 33.7789 25.2376C33.9856 24.7562 34.1688 24.265 34.3278 23.7658C34.3578 23.672 34.369 23.5732 34.3608 23.4751C34.3526 23.377 34.3251 23.2814 34.2799 23.1939C34.2347 23.1064 34.1728 23.0287 34.0975 22.9651C34.0223 22.9016 33.9353 22.8535 33.8414 22.8236ZM24.5148 32.5245C24.0774 32.7115 23.6314 32.8776 23.1782 33.0221C23.0844 33.052 22.9973 33.1001 22.9221 33.1637C22.8469 33.2272 22.7849 33.305 22.7397 33.3925C22.6945 33.48 22.667 33.5755 22.6587 33.6736C22.6504 33.7718 22.6616 33.8706 22.6915 33.9644C22.7214 34.0582 22.7695 34.1452 22.833 34.2205C22.8966 34.2957 22.9743 34.3577 23.0618 34.4029C23.1493 34.4481 23.2448 34.4756 23.343 34.4839C23.4411 34.4921 23.5399 34.481 23.6337 34.4511C24.1327 34.2922 24.6237 34.1095 25.1052 33.9036C25.2881 33.8253 25.4323 33.6776 25.5063 33.4928C25.5802 33.3081 25.5778 33.1016 25.4994 32.9187C25.4211 32.7358 25.2734 32.5916 25.0886 32.5176C24.9039 32.4437 24.6974 32.4461 24.5145 32.5245H24.5148Z"
                    fill="#033318"
                  />
                  <path
                    d="M12.2686 17.1984C12.2686 15.9692 11.4603 14.9842 10.2094 14.6889C9.52217 14.5262 8.80008 14.6011 8.16097 14.9016C7.52186 15.2021 7.00349 15.7104 6.69046 16.3434C6.64575 16.4316 6.61892 16.5278 6.61149 16.6263C6.60407 16.7249 6.6162 16.824 6.6472 16.9179C6.6782 17.0117 6.72745 17.0985 6.79211 17.1733C6.85678 17.2481 6.93558 17.3093 7.024 17.3536C7.11242 17.3978 7.20871 17.4241 7.30733 17.4309C7.40594 17.4378 7.50495 17.4251 7.59864 17.3936C7.69234 17.3621 7.77888 17.3123 7.85329 17.2473C7.9277 17.1822 7.98852 17.103 8.03223 17.0144C8.19236 16.682 8.46173 16.4148 8.79529 16.2572C9.12886 16.0997 9.5064 16.0614 9.86479 16.1488C10.0768 16.1988 10.7686 16.4225 10.7686 17.1984C10.7686 17.9806 9.86514 18.584 8.90861 19.2228C7.83156 19.9417 6.61136 20.7565 6.61136 22.1056C6.61136 22.3045 6.69037 22.4953 6.83101 22.636C6.97165 22.7766 7.1624 22.8556 7.36131 22.8557H11.5185C11.7162 22.8537 11.9051 22.7739 12.0442 22.6334C12.1833 22.493 12.2613 22.3033 12.2613 22.1057C12.2613 21.908 12.1833 21.7183 12.0442 21.5779C11.9051 21.4374 11.7162 21.3576 11.5185 21.3557H8.54713C8.86136 21.058 9.30552 20.7613 9.74132 20.4702C10.9262 19.6791 12.2686 18.7827 12.2686 17.1984ZM19.3613 19.6681C19.3613 19.4692 19.2823 19.2784 19.1416 19.1378C19.001 18.9972 18.8102 18.9182 18.6113 18.9182H18.0019V14.9338C18.0019 14.7784 17.9536 14.6269 17.8638 14.5002C17.774 14.3735 17.6471 14.2777 17.5005 14.2262C17.354 14.1747 17.1951 14.17 17.0457 14.2127C16.8964 14.2553 16.764 14.3433 16.6667 14.4645L12.8699 19.199C12.7815 19.3094 12.7262 19.4424 12.7101 19.5827C12.6941 19.7231 12.718 19.8652 12.7791 19.9926C12.8403 20.12 12.9362 20.2275 13.0558 20.3028C13.1754 20.3781 13.3138 20.4181 13.4551 20.4181H16.5019V22.5275C16.501 22.6266 16.5197 22.7249 16.5569 22.8167C16.5942 22.9086 16.6493 22.9921 16.719 23.0625C16.7888 23.133 16.8718 23.1889 16.9632 23.227C17.0547 23.2651 17.1528 23.2848 17.2519 23.2848C17.351 23.2848 17.4492 23.2651 17.5406 23.227C17.6321 23.1889 17.7151 23.133 17.7848 23.0625C17.8546 22.9921 17.9097 22.9086 17.9469 22.8167C17.9842 22.7249 18.0029 22.6266 18.0019 22.5275V20.4181H18.6113C18.8102 20.4181 19.001 20.3391 19.1417 20.1985C19.2823 20.0578 19.3613 19.867 19.3613 19.6681ZM16.5019 18.9182H15.0183L16.5019 17.0677V18.9182ZM23.1999 13.7766C23.1033 13.757 23.0038 13.7568 22.9071 13.7758C22.8104 13.7948 22.7184 13.8328 22.6364 13.8874C22.5544 13.9421 22.484 14.0124 22.4293 14.0943C22.3745 14.1762 22.3365 14.2682 22.3173 14.3649L20.6298 22.8024C20.5908 22.9974 20.6308 23.1999 20.7411 23.3654C20.8514 23.531 21.023 23.6459 21.218 23.6849C21.2666 23.6946 21.3161 23.6995 21.3657 23.6995C21.5389 23.6994 21.7067 23.6392 21.8406 23.5293C21.9745 23.4195 22.0663 23.2666 22.1003 23.0968L23.7878 14.6593C23.8072 14.5627 23.8074 14.4633 23.7883 14.3666C23.7692 14.27 23.7313 14.1781 23.6767 14.0961C23.6222 14.0141 23.5519 13.9437 23.4701 13.8889C23.3883 13.834 23.2965 13.7959 23.1999 13.7766ZM27.0485 22.856C27.1966 22.8559 27.3413 22.812 27.4646 22.7298C27.5878 22.6477 27.684 22.5309 27.741 22.3942L30.5535 15.6442C30.601 15.5302 30.6197 15.4063 30.6078 15.2834C30.596 15.1604 30.5539 15.0424 30.4854 14.9396C30.417 14.8368 30.3242 14.7526 30.2153 14.6943C30.1064 14.636 29.9848 14.6056 29.8613 14.6056H26.0644C25.8668 14.6075 25.6779 14.6874 25.5388 14.8278C25.3997 14.9683 25.3217 15.1579 25.3217 15.3556C25.3217 15.5533 25.3997 15.7429 25.5388 15.8834C25.6779 16.0238 25.8668 16.1037 26.0644 16.1056H28.7363L26.3567 21.8173C26.3093 21.9313 26.2908 22.0552 26.3028 22.178C26.3147 22.3008 26.3567 22.4188 26.4251 22.5216C26.4935 22.6243 26.5862 22.7085 26.6949 22.7669C26.8036 22.8253 26.9251 22.856 27.0485 22.8563V22.856Z"
                    fill="#076D34"
                  />
                </svg>