<svg xmlns="http://www.w3.org/2000/svg" width="14" height="15" viewBox="0 0 14 15" fill="none">
  <g clip-path="url(#clip0_2395_3379)">
    <path d="M3.62501 3.88212C3.62501 2.01364 5.13865 0.504492 7.00264 0.5C8.87111 0.5 10.3848 2.01364 10.3892 3.88212C10.3892 5.75059 8.8756 7.26423 7.00713 7.26423H7.00264C5.13865 7.26423 3.62052 5.75059 3.62501 3.88212Z" fill="white"/>
    <path d="M12.3935 11.6024C12.3935 12.0246 12.2094 12.4244 11.8905 12.6984C10.5295 13.8662 8.79581 14.5039 7.00369 14.4995C5.21158 14.5039 3.47785 13.8662 2.11692 12.6984C1.79353 12.4244 1.60938 12.0246 1.60938 11.6024C1.60938 9.71149 3.14548 8.19336 5.03641 8.19336H8.97547C10.8664 8.19336 12.3935 9.71149 12.3935 11.6024Z" fill="white"/>
  </g>
  <defs>
    <clipPath id="clip0_2395_3379">
      <rect width="14" height="14" fill="white" transform="translate(0 0.5)"/>
    </clipPath>
  </defs>
</svg>