<svg xmlns="http://www.w3.org/2000/svg" width="49" height="49" viewBox="0 0 49 49" fill="none">
  <circle cx="24.5" cy="24.4805" r="23.5714" stroke="#076D34" stroke-width="0.857143"/>
  <path d="M17.5333 19.8845C17.7263 19.8845 17.9148 19.9577 18.099 20.1039C18.2919 20.2502 18.3884 20.4468 18.3884 20.6937C18.3884 20.8674 18.327 21.0411 18.2042 21.2148L13.1661 27.9622L13.0082 27.9074H17.4018C17.6298 27.9074 17.8183 27.9805 17.9674 28.1268C18.1253 28.2639 18.2042 28.4514 18.2042 28.6891C18.2042 28.9177 18.1253 29.1097 17.9674 29.2651C17.8183 29.4114 17.6298 29.4845 17.4018 29.4845H11.627C11.399 29.4845 11.2017 29.4022 11.0351 29.2377C10.8685 29.0639 10.7852 28.8765 10.7852 28.6754C10.7852 28.5017 10.8465 28.3279 10.9693 28.1542L16.0206 21.3794L16.139 21.4617H12.1532C11.9252 21.4617 11.7323 21.3885 11.5744 21.2422C11.4253 21.0959 11.3508 20.9039 11.3508 20.6662C11.3508 20.4285 11.4253 20.2411 11.5744 20.1039C11.7323 19.9577 11.9252 19.8845 12.1532 19.8845H17.5333Z" fill="#076D34"/>
  <path d="M25.4712 22.0102C25.6992 22.0102 25.8877 22.0879 26.0368 22.2434C26.1859 22.3988 26.2604 22.5999 26.2604 22.8468V28.6479C26.2604 28.8857 26.1859 29.0868 26.0368 29.2514C25.8877 29.4068 25.6992 29.4845 25.4712 29.4845C25.2432 29.4845 25.0546 29.4068 24.9055 29.2514C24.7564 29.0868 24.6819 28.8857 24.6819 28.6479V27.9759L24.9713 28.0994C24.9713 28.2182 24.9099 28.3645 24.7871 28.5382C24.6644 28.7028 24.4977 28.8674 24.2873 29.0319C24.0768 29.1965 23.8269 29.3382 23.5375 29.4571C23.2569 29.5668 22.9499 29.6217 22.6167 29.6217C22.0116 29.6217 21.4635 29.4617 20.9724 29.1417C20.4813 28.8125 20.091 28.3645 19.8016 27.7977C19.521 27.2217 19.3807 26.5634 19.3807 25.8228C19.3807 25.0731 19.521 24.4148 19.8016 23.8479C20.091 23.2719 20.4769 22.8239 20.9592 22.5039C21.4416 22.1748 21.9765 22.0102 22.5641 22.0102C22.9411 22.0102 23.2875 22.0697 23.6033 22.1885C23.919 22.3074 24.1908 22.4582 24.4188 22.6411C24.6556 22.8239 24.8354 23.0114 24.9581 23.2034C25.0897 23.3862 25.1555 23.5417 25.1555 23.6697L24.6819 23.8479V22.8468C24.6819 22.6091 24.7564 22.4125 24.9055 22.2571C25.0546 22.0925 25.2432 22.0102 25.4712 22.0102ZM22.814 28.1131C23.1999 28.1131 23.5375 28.0125 23.8269 27.8114C24.1163 27.6102 24.3399 27.3359 24.4977 26.9885C24.6644 26.6411 24.7477 26.2525 24.7477 25.8228C24.7477 25.3839 24.6644 24.9908 24.4977 24.6434C24.3399 24.2959 24.1163 24.0217 23.8269 23.8205C23.5375 23.6194 23.1999 23.5188 22.814 23.5188C22.4369 23.5188 22.1037 23.6194 21.8143 23.8205C21.5249 24.0217 21.2969 24.2959 21.1302 24.6434C20.9724 24.9908 20.8935 25.3839 20.8935 25.8228C20.8935 26.2525 20.9724 26.6411 21.1302 26.9885C21.2969 27.3359 21.5249 27.6102 21.8143 27.8114C22.1037 28.0125 22.4369 28.1131 22.814 28.1131Z" fill="#076D34"/>
  <path d="M29.6796 28.6479C29.6796 28.8857 29.6007 29.0868 29.4429 29.2514C29.2938 29.4068 29.1052 29.4845 28.8772 29.4845C28.658 29.4845 28.4738 29.4068 28.3247 29.2514C28.1757 29.0868 28.1011 28.8857 28.1011 28.6479V20.1725C28.1011 19.9348 28.1757 19.7382 28.3247 19.5828C28.4826 19.4182 28.6755 19.3359 28.9035 19.3359C29.1315 19.3359 29.3157 19.4182 29.456 19.5828C29.6051 19.7382 29.6796 19.9348 29.6796 20.1725V28.6479Z" fill="#076D34"/>
  <path d="M38.2137 25.8228C38.2137 26.5725 38.0515 27.2354 37.727 27.8114C37.4113 28.3782 36.9816 28.8217 36.4379 29.1417C35.9029 29.4617 35.3022 29.6217 34.6357 29.6217C33.9693 29.6217 33.3642 29.4617 32.8204 29.1417C32.2855 28.8217 31.8558 28.3782 31.5313 27.8114C31.2156 27.2354 31.0578 26.5725 31.0578 25.8228C31.0578 25.0731 31.2156 24.4148 31.5313 23.8479C31.8558 23.2719 32.2855 22.8239 32.8204 22.5039C33.3642 22.1748 33.9693 22.0102 34.6357 22.0102C35.3022 22.0102 35.9029 22.1748 36.4379 22.5039C36.9816 22.8239 37.4113 23.2719 37.727 23.8479C38.0515 24.4148 38.2137 25.0731 38.2137 25.8228ZM36.6352 25.8228C36.6352 25.3565 36.5431 24.9542 36.359 24.6159C36.1836 24.2685 35.9424 23.9988 35.6355 23.8068C35.3373 23.6148 35.0041 23.5188 34.6357 23.5188C34.2674 23.5188 33.9298 23.6148 33.6229 23.8068C33.3247 23.9988 33.0835 24.2685 32.8994 24.6159C32.724 24.9542 32.6363 25.3565 32.6363 25.8228C32.6363 26.2799 32.724 26.6822 32.8994 27.0297C33.0835 27.3679 33.3247 27.6331 33.6229 27.8251C33.9298 28.0171 34.2674 28.1131 34.6357 28.1131C35.0041 28.1131 35.3373 28.0171 35.6355 27.8251C35.9424 27.6331 36.1836 27.3679 36.359 27.0297C36.5431 26.6822 36.6352 26.2799 36.6352 25.8228Z" fill="#076D34"/>
</svg>