<svg width="20" height="20" viewBox="0 0 20 20" fill="none" xmlns="http://www.w3.org/2000/svg">
<g id="mingcute:down-line" clip-path="url(#clip0_2275_9675)">
<g id="Group">
<g id="Vector">
<path fill-rule="evenodd" clip-rule="evenodd" d="M10.5844 13.0883C10.4281 13.2445 10.2162 13.3323 9.99524 13.3323C9.77427 13.3323 9.56235 13.2445 9.40607 13.0883L4.69191 8.37415C4.61232 8.29727 4.54883 8.20532 4.50516 8.10365C4.46148 8.00198 4.43849 7.89263 4.43753 7.78198C4.43657 7.67133 4.45765 7.5616 4.49956 7.45919C4.54146 7.35677 4.60333 7.26373 4.68158 7.18548C4.75982 7.10724 4.85286 7.04536 4.95528 7.00346C5.05769 6.96156 5.16743 6.94048 5.27807 6.94144C5.38872 6.9424 5.49807 6.96539 5.59974 7.00906C5.70141 7.05274 5.79337 7.11622 5.87024 7.19581L9.99524 11.3208L14.1202 7.19581C14.2774 7.04401 14.4879 6.96002 14.7064 6.96192C14.9249 6.96382 15.1339 7.05146 15.2884 7.20596C15.4429 7.36047 15.5306 7.56948 15.5325 7.78798C15.5344 8.00648 15.4504 8.21698 15.2986 8.37415L10.5844 13.0883Z" fill="#015121"/>
<path fill-rule="evenodd" clip-rule="evenodd" d="M10.5844 13.0883C10.4281 13.2445 10.2162 13.3323 9.99524 13.3323C9.77427 13.3323 9.56235 13.2445 9.40607 13.0883L4.69191 8.37415C4.61232 8.29727 4.54883 8.20532 4.50516 8.10365C4.46148 8.00198 4.43849 7.89263 4.43753 7.78198C4.43657 7.67133 4.45765 7.5616 4.49956 7.45919C4.54146 7.35677 4.60333 7.26373 4.68158 7.18548C4.75982 7.10724 4.85286 7.04536 4.95528 7.00346C5.05769 6.96156 5.16743 6.94048 5.27807 6.94144C5.38872 6.9424 5.49807 6.96539 5.59974 7.00906C5.70141 7.05274 5.79337 7.11622 5.87024 7.19581L9.99524 11.3208L14.1202 7.19581C14.2774 7.04401 14.4879 6.96002 14.7064 6.96192C14.9249 6.96382 15.1339 7.05146 15.2884 7.20596C15.4429 7.36047 15.5306 7.56948 15.5325 7.78798C15.5344 8.00648 15.4504 8.21698 15.2986 8.37415L10.5844 13.0883Z" fill="black" fill-opacity="0.2"/>
</g>
</g>
</g>
<defs>
<clipPath id="clip0_2275_9675">
<rect width="20" height="20" fill="white"/>
</clipPath>
</defs>
</svg>
