<svg width="20" height="21" viewBox="0 0 20 21" fill="none" xmlns="http://www.w3.org/2000/svg">
<g id="Item &#226;&#134;&#146; Link - Fiverr on Facebook &#226;&#134;&#146; SVG" clip-path="url(#clip0_2269_9329)">
<path id="Vector" d="M20 10.1585C20.0004 8.24729 19.4532 6.37605 18.4231 4.76628C17.393 3.15651 15.9232 1.87563 14.1877 1.07531C12.4522 0.274991 10.5237 -0.0112531 8.63053 0.250472C6.73739 0.512198 4.9589 1.31093 3.50564 2.5521C2.05237 3.79326 0.985206 5.42488 0.430495 7.25375C-0.124217 9.08261 -0.143239 11.0322 0.37568 12.8715C0.894599 14.7109 1.92973 16.3629 3.35849 17.6322C4.78726 18.9016 6.54983 19.7348 8.4375 20.0334V13.0485H5.89875V10.1585H8.4375V7.95468C8.38284 7.44024 8.44199 6.92007 8.61078 6.43105C8.77957 5.94202 9.05386 5.49611 9.4142 5.12491C9.77455 4.75371 10.2121 4.46632 10.6959 4.28309C11.1797 4.09987 11.6979 4.0253 12.2137 4.06468C12.9638 4.07453 13.7121 4.13971 14.4525 4.25968V6.72343H13.1925C12.9779 6.69536 12.7597 6.71592 12.554 6.78358C12.3484 6.85123 12.1607 6.96426 12.0046 7.11429C11.8486 7.26432 11.7283 7.44752 11.6526 7.65033C11.577 7.85314 11.5479 8.07036 11.5675 8.28593V10.1609H14.3412L13.8975 13.051H11.5625V20.0396C13.9153 19.6674 16.058 18.4677 17.6048 16.6562C19.1516 14.8447 20.001 12.5405 20 10.1585Z" fill="white"/>
</g>
<defs>
<clipPath id="clip0_2269_9329">
<rect width="20" height="20" fill="white" transform="translate(0 0.15625)"/>
</clipPath>
</defs>
</svg>
