<svg width="42" height="16" viewBox="0 0 42 16" fill="none" xmlns="http://www.w3.org/2000/svg">
<g id="Zalo">
<path d="M10.3633 1.66031C10.654 1.66031 10.9381 1.76372 11.2155 1.97053C11.5063 2.17734 11.6516 2.45525 11.6516 2.80425C11.6516 3.04984 11.5591 3.29543 11.3741 3.54102L3.78284 13.0802L3.54499 13.0027H10.1651C10.5086 13.0027 10.7927 13.1061 11.0173 13.3129C11.2552 13.5068 11.3741 13.7718 11.3741 14.1079C11.3741 14.431 11.2552 14.7024 11.0173 14.9222C10.7927 15.129 10.5086 15.2324 10.1651 15.2324H1.46383C1.12027 15.2324 0.822964 15.1161 0.571903 14.8834C0.320843 14.6378 0.195312 14.3728 0.195312 14.0885C0.195312 13.8429 0.287809 13.5973 0.472801 13.3517L8.0839 3.77368L8.26229 3.89001H2.25665C1.9131 3.89001 1.62239 3.78661 1.38455 3.57979C1.15991 3.37298 1.0476 3.10154 1.0476 2.76547C1.0476 2.4294 1.15991 2.16442 1.38455 1.97053C1.62239 1.76372 1.9131 1.66031 2.25665 1.66031H10.3633Z" fill="white"/>
<path d="M22.3237 4.66556C22.6673 4.66556 22.9514 4.77543 23.176 4.99517C23.4007 5.21491 23.513 5.49927 23.513 5.84827V14.0497C23.513 14.3858 23.4007 14.6701 23.176 14.9028C22.9514 15.1225 22.6673 15.2324 22.3237 15.2324C21.9802 15.2324 21.6961 15.1225 21.4715 14.9028C21.2468 14.6701 21.1345 14.3858 21.1345 14.0497V13.0996L21.5706 13.2741C21.5706 13.4422 21.4781 13.649 21.2931 13.8946C21.1081 14.1272 20.857 14.3599 20.5399 14.5926C20.2228 14.8252 19.8462 15.0256 19.4101 15.1936C18.9873 15.3487 18.5248 15.4263 18.0227 15.4263C17.1109 15.4263 16.2851 15.2001 15.5451 14.7477C14.8051 14.2823 14.2171 13.649 13.7811 12.8476C13.3582 12.0333 13.1468 11.1026 13.1468 10.0556C13.1468 8.9957 13.3582 8.06504 13.7811 7.26364C14.2171 6.44932 14.7985 5.81595 15.5253 5.36355C16.252 4.89822 17.0581 4.66556 17.9434 4.66556C18.5116 4.66556 19.0335 4.74958 19.5092 4.91761C19.9849 5.08565 20.3945 5.29892 20.7381 5.55744C21.0949 5.81595 21.3657 6.08093 21.5507 6.35238C21.7489 6.61089 21.848 6.83063 21.848 7.01159L21.1345 7.26364V5.84827C21.1345 5.5122 21.2468 5.23429 21.4715 5.01456C21.6961 4.78189 21.9802 4.66556 22.3237 4.66556ZM18.32 13.2935C18.9014 13.2935 19.4101 13.1513 19.8462 12.867C20.2822 12.5826 20.6192 12.1948 20.857 11.7037C21.1081 11.2125 21.2336 10.6631 21.2336 10.0556C21.2336 9.43518 21.1081 8.87937 20.857 8.38819C20.6192 7.89701 20.2822 7.50923 19.8462 7.22487C19.4101 6.9405 18.9014 6.79831 18.32 6.79831C17.7518 6.79831 17.2497 6.9405 16.8136 7.22487C16.3776 7.50923 16.034 7.89701 15.783 8.38819C15.5451 8.87937 15.4262 9.43518 15.4262 10.0556C15.4262 10.6631 15.5451 11.2125 15.783 11.7037C16.034 12.1948 16.3776 12.5826 16.8136 12.867C17.2497 13.1513 17.7518 13.2935 18.32 13.2935Z" fill="white"/>
<path d="M28.6649 14.0497C28.6649 14.3858 28.546 14.6701 28.3082 14.9028C28.0835 15.1225 27.7994 15.2324 27.4559 15.2324C27.1255 15.2324 26.848 15.1225 26.6234 14.9028C26.3988 14.6701 26.2865 14.3858 26.2865 14.0497V2.06748C26.2865 1.7314 26.3988 1.4535 26.6234 1.23376C26.8613 1.0011 27.152 0.884766 27.4955 0.884766C27.8391 0.884766 28.1166 1.0011 28.328 1.23376C28.5526 1.4535 28.6649 1.7314 28.6649 2.06748V14.0497Z" fill="white"/>
<path d="M41.5238 10.0556C41.5238 11.1155 41.2794 12.0527 40.7905 12.867C40.3148 13.6684 39.6673 14.2953 38.8481 14.7477C38.042 15.2001 37.1369 15.4263 36.1326 15.4263C35.1284 15.4263 34.2167 15.2001 33.3974 14.7477C32.5914 14.2953 31.9439 13.6684 31.455 12.867C30.9793 12.0527 30.7414 11.1155 30.7414 10.0556C30.7414 8.9957 30.9793 8.06504 31.455 7.26364C31.9439 6.44932 32.5914 5.81595 33.3974 5.36355C34.2167 4.89822 35.1284 4.66556 36.1326 4.66556C37.1369 4.66556 38.042 4.89822 38.8481 5.36355C39.6673 5.81595 40.3148 6.44932 40.7905 7.26364C41.2794 8.06504 41.5238 8.9957 41.5238 10.0556ZM39.1454 10.0556C39.1454 9.3964 39.0066 8.82766 38.7291 8.34941C38.4649 7.85823 38.1015 7.47692 37.639 7.20548C37.1897 6.93404 36.6876 6.79831 36.1326 6.79831C35.5777 6.79831 35.0689 6.93404 34.6065 7.20548C34.1572 7.47692 33.7938 7.85823 33.5163 8.34941C33.252 8.82766 33.1199 9.3964 33.1199 10.0556C33.1199 10.7019 33.252 11.2706 33.5163 11.7618C33.7938 12.2401 34.1572 12.6149 34.6065 12.8864C35.0689 13.1578 35.5777 13.2935 36.1326 13.2935C36.6876 13.2935 37.1897 13.1578 37.639 12.8864C38.1015 12.6149 38.4649 12.2401 38.7291 11.7618C39.0066 11.2706 39.1454 10.7019 39.1454 10.0556Z" fill="white"/>
</g>
</svg>
