<svg xmlns="http://www.w3.org/2000/svg" width="14" height="15" viewBox="0 0 14 15" fill="none">
  <g clip-path="url(#clip0_1366_55620)">
    <path d="M3.62501 3.88212C3.62501 2.01364 5.13865 0.504492 7.00264 0.5C8.87111 0.5 10.3848 2.01364 10.3892 3.88212C10.3892 5.75059 8.8756 7.26423 7.00713 7.26423H7.00264C5.13865 7.26423 3.62052 5.75059 3.62501 3.88212Z" fill="#A9A9A9"/>
    <path d="M12.3935 11.6044C12.3935 12.0266 12.2094 12.4263 11.8905 12.7003C10.5295 13.8681 8.79581 14.5059 7.00369 14.5014C5.21158 14.5059 3.47785 13.8681 2.11692 12.7003C1.79353 12.4263 1.60938 12.0266 1.60938 11.6044C1.60938 9.71345 3.14548 8.19531 5.03641 8.19531H8.97547C10.8664 8.19531 12.3935 9.71345 12.3935 11.6044Z" fill="#A9A9A9"/>
  </g>
  <defs>
    <clipPath id="clip0_1366_55620">
      <rect width="14" height="14" fill="white" transform="translate(0 0.5)"/>
    </clipPath>
  </defs>
</svg>