<svg xmlns="http://www.w3.org/2000/svg" width="12" height="14" viewBox="0 0 12 14" fill="none">
  <path d="M8.6224 6.41537H3.3724C3.21769 6.41537 3.06931 6.35391 2.95992 6.24451C2.85052 6.13511 2.78906 5.98674 2.78906 5.83203V3.79036C2.78906 2.93946 3.12708 2.12341 3.72876 1.52173C4.33044 0.920051 5.14649 0.582031 5.9974 0.582031C6.8483 0.582031 7.66435 0.920051 8.26603 1.52173C8.86771 2.12341 9.20573 2.93946 9.20573 3.79036V5.83203C9.20573 5.98674 9.14427 6.13511 9.03487 6.24451C8.92548 6.35391 8.77711 6.41537 8.6224 6.41537ZM3.95573 5.2487H8.03906V3.79036C8.03906 3.24888 7.82396 2.72958 7.44107 2.34669C7.05819 1.9638 6.53888 1.7487 5.9974 1.7487C5.45591 1.7487 4.93661 1.9638 4.55372 2.34669C4.17083 2.72958 3.95573 3.24888 3.95573 3.79036V5.2487Z" fill="#A9A9A9"/>
  <path d="M8.91667 5.25H3.08333C2.46468 5.25062 1.87155 5.49665 1.4341 5.9341C0.996649 6.37155 0.750618 6.96468 0.75 7.58333V11.0833C0.750618 11.702 0.996649 12.2951 1.4341 12.7326C1.87155 13.17 2.46468 13.416 3.08333 13.4167H8.91667C9.53532 13.416 10.1284 13.17 10.5659 12.7326C11.0034 12.2951 11.2494 11.702 11.25 11.0833V7.58333C11.2494 6.96468 11.0034 6.37155 10.5659 5.9341C10.1284 5.49665 9.53532 5.25062 8.91667 5.25ZM6 9.91667C5.76926 9.91667 5.54369 9.84824 5.35183 9.72005C5.15998 9.59185 5.01044 9.40964 4.92214 9.19646C4.83384 8.98328 4.81073 8.74871 4.85575 8.52239C4.90077 8.29608 5.01188 8.0882 5.17504 7.92504C5.3382 7.76188 5.54608 7.65077 5.77239 7.60575C5.99871 7.56073 6.23328 7.58384 6.44646 7.67214C6.65964 7.76044 6.84185 7.90998 6.97005 8.10184C7.09824 8.29369 7.16667 8.51926 7.16667 8.75C7.16667 9.05942 7.04375 9.35617 6.82496 9.57496C6.60616 9.79375 6.30942 9.91667 6 9.91667Z" fill="#A9A9A9"/>
</svg>