<svg xmlns="http://www.w3.org/2000/svg" width="14" height="14" viewBox="0 0 14 14" fill="none">
  <path d="M3.62501 3.38212C3.62501 1.51364 5.13865 0.00449152 7.00264 0C8.87111 0 10.3848 1.51364 10.3892 3.38212C10.3892 5.25059 8.8756 6.76423 7.00713 6.76423H7.00264C5.13865 6.76423 3.62052 5.25059 3.62501 3.38212Z" fill="white"/>
  <path d="M12.3935 11.1044C12.3935 11.5266 12.2094 11.9263 11.8905 12.2003C10.5295 13.3681 8.79581 14.0059 7.00369 14.0014C5.21158 14.0059 3.47785 13.3681 2.11692 12.2003C1.79353 11.9263 1.60938 11.5266 1.60938 11.1044C1.60938 9.21345 3.14548 7.69531 5.03641 7.69531H8.97547C10.8664 7.69531 12.3935 9.21345 12.3935 11.1044Z" fill="white"/>
</svg>