<svg xmlns="http://www.w3.org/2000/svg" width="14" height="14" viewBox="0 0 14 14" fill="none">
  <g clip-path="url(#clip0_2545_12633)">
    <path d="M7 9.25L9.25 7M9.25 7L7 4.75M9.25 7H1M4.75 3.43644V3.40015C4.75 2.56007 4.75 2.13972 4.91349 1.81885C5.0573 1.5366 5.2866 1.3073 5.56885 1.16349C5.88972 1 6.31007 1 7.15015 1H10.6001C11.4402 1 11.8597 1 12.1805 1.16349C12.4628 1.3073 12.6929 1.5366 12.8367 1.81885C13 2.1394 13 2.55925 13 3.39768V10.6027C13 11.4411 13 11.8604 12.8367 12.1809C12.6929 12.4632 12.4628 12.6929 12.1805 12.8367C11.86 13 11.4408 13 10.6023 13H7.14768C6.30925 13 5.8894 13 5.56885 12.8367C5.2866 12.6929 5.0573 12.4629 4.91349 12.1807C4.75 11.8598 4.75 11.4401 4.75 10.6V10.5625" stroke="#A9A9A9" stroke-width="1.4" stroke-linecap="round" stroke-linejoin="round"/>
  </g>
  <defs>
    <clipPath id="clip0_2545_12633">
      <rect width="14" height="14" fill="white"/>
    </clipPath>
  </defs>
</svg>