<svg width="12" height="12" viewBox="0 0 12 12" fill="none" xmlns="http://www.w3.org/2000/svg">
<g id="Interface / Settings" clip-path="url(#clip0_2288_3447)">
<g id="Vector">
<path d="M10.173 4.46049L9.98991 4.35862C9.96148 4.34281 9.94749 4.33487 9.93376 4.32664C9.79722 4.24485 9.68213 4.13184 9.59814 3.99664C9.58969 3.98303 9.58173 3.96877 9.56544 3.94057C9.54918 3.91241 9.54093 3.89814 9.53337 3.88401C9.45803 3.74335 9.41728 3.5866 9.41484 3.42705C9.4146 3.41102 9.41466 3.39463 9.4152 3.36205L9.41878 3.14941C9.42451 2.80915 9.42738 2.63849 9.37956 2.48533C9.33708 2.34929 9.26603 2.22399 9.17114 2.11765C9.06388 1.99745 8.91541 1.9117 8.61816 1.74041L8.37126 1.59813C8.07484 1.42731 7.92658 1.34188 7.76921 1.30931C7.62998 1.28049 7.48631 1.28183 7.34759 1.31297C7.19102 1.34812 7.04462 1.43578 6.75198 1.611L6.75032 1.6118L6.57341 1.71773C6.54543 1.73448 6.53127 1.74292 6.51725 1.75072C6.37812 1.82807 6.22278 1.87085 6.06367 1.87596C6.04763 1.87647 6.03132 1.87647 5.9987 1.87647C5.96628 1.87647 5.94927 1.87647 5.93327 1.87596C5.77381 1.87083 5.61816 1.82782 5.4788 1.75014C5.46476 1.74231 5.45086 1.7338 5.42283 1.71697L5.24479 1.61009C4.95016 1.43321 4.80262 1.34463 4.64518 1.30931C4.5059 1.27806 4.36173 1.27719 4.222 1.30638C4.06423 1.33933 3.91593 1.4254 3.61934 1.59754L3.61802 1.59813L3.37419 1.73964L3.37149 1.74129C3.07757 1.91188 2.93025 1.99738 2.8239 2.11709C2.72951 2.22332 2.65897 2.34843 2.61675 2.48411C2.56902 2.63748 2.57156 2.8085 2.57731 3.15037L2.58089 3.3627C2.58143 3.39486 2.58236 3.41083 2.58213 3.42665C2.57976 3.58652 2.53848 3.74359 2.46292 3.8845C2.45545 3.89844 2.4474 3.91238 2.43132 3.94021C2.41523 3.96807 2.40743 3.98192 2.39909 3.99536C2.31473 4.13129 2.19912 4.24495 2.06171 4.32689C2.04812 4.33499 2.0338 4.34278 2.00565 4.35838L1.82487 4.45856C1.52409 4.62525 1.37373 4.70866 1.26432 4.82737C1.16754 4.93239 1.09442 5.05695 1.04979 5.19261C0.999341 5.34596 0.999384 5.51792 1.00016 5.8618L1.0008 6.14286C1.00158 6.48445 1.00264 6.65512 1.05321 6.80743C1.09794 6.94218 1.17052 7.06601 1.26677 7.17039C1.37555 7.28838 1.52442 7.37128 1.82292 7.53734L2.00209 7.63701C2.03258 7.65397 2.04793 7.66235 2.06263 7.6712C2.19879 7.75319 2.31349 7.86654 2.39714 8.00169C2.40617 8.01629 2.41485 8.03145 2.43219 8.06175C2.44933 8.09168 2.45809 8.10665 2.46602 8.12165C2.53935 8.26049 2.57862 8.41476 2.58129 8.57176C2.58158 8.58872 2.58134 8.60588 2.58075 8.64036L2.57731 8.84412C2.57152 9.18717 2.569 9.35888 2.61701 9.51267C2.65948 9.64872 2.73047 9.77401 2.82536 9.88035C2.93262 10.0006 3.08132 10.0863 3.37858 10.2576L3.62544 10.3998C3.92186 10.5706 4.07002 10.6559 4.22739 10.6885C4.36661 10.7173 4.51037 10.7162 4.64909 10.6851C4.80588 10.6499 4.95279 10.5619 5.24626 10.3862L5.42317 10.2803C5.45116 10.2635 5.46533 10.2551 5.47935 10.2473C5.61849 10.1699 5.77367 10.1269 5.93278 10.1218C5.94882 10.1213 5.96513 10.1213 5.99775 10.1213C6.03044 10.1213 6.04674 10.1213 6.06281 10.1218C6.22227 10.127 6.37839 10.1701 6.51774 10.2478C6.53 10.2546 6.54229 10.262 6.56386 10.275L6.75193 10.3879C7.04661 10.5648 7.19383 10.6531 7.35128 10.6884C7.49057 10.7197 7.63485 10.7209 7.77458 10.6918C7.93231 10.6588 8.0809 10.5726 8.37733 10.4005L8.62483 10.2569C8.91894 10.0862 9.06641 10.0006 9.17281 9.88084C9.26719 9.77461 9.33782 9.64956 9.38005 9.51388C9.42743 9.36162 9.42457 9.19192 9.4189 8.85498L9.4152 8.63524C9.41466 8.60308 9.4146 8.58708 9.41483 8.57127C9.4172 8.4114 9.45781 8.25422 9.53337 8.11331C9.54083 8.09939 9.54894 8.08535 9.56497 8.0576C9.58106 8.02975 9.58939 8.01586 9.59773 8.00242C9.68209 7.8665 9.79782 7.75273 9.93522 7.6708C9.94865 7.66279 9.96247 7.65513 9.98994 7.63991L9.99089 7.63947L10.1717 7.53929C10.4725 7.3726 10.6231 7.2891 10.7325 7.17039C10.8293 7.06538 10.9023 6.94099 10.9469 6.80533C10.9971 6.65288 10.9967 6.48192 10.9959 6.14206L10.9953 5.85496C10.9945 5.51338 10.9941 5.34272 10.9435 5.19041C10.8988 5.05566 10.8258 4.93183 10.7296 4.82745C10.6209 4.70958 10.4718 4.62665 10.1739 4.46091L10.173 4.46049Z" stroke="url(#paint0_linear_2288_3447)" stroke-width="0.6" stroke-linecap="round" stroke-linejoin="round"/>
<path d="M3.99821 5.999C3.99821 7.10357 4.89364 7.99901 5.99821 7.99901C7.10278 7.99901 7.99821 7.10357 7.99821 5.999C7.99821 4.89444 7.10278 3.999 5.99821 3.999C4.89364 3.999 3.99821 4.89444 3.99821 5.999Z" stroke="url(#paint1_linear_2288_3447)" stroke-width="0.6" stroke-linecap="round" stroke-linejoin="round"/>
</g>
</g>
<defs>
<linearGradient id="paint0_linear_2288_3447" x1="5.99805" y1="1.28516" x2="5.99805" y2="10.7128" gradientUnits="userSpaceOnUse">
<stop stop-color="#13733A"/>
<stop offset="1" stop-color="#028437"/>
</linearGradient>
<linearGradient id="paint1_linear_2288_3447" x1="5.99805" y1="1.28516" x2="5.99805" y2="10.7128" gradientUnits="userSpaceOnUse">
<stop stop-color="#13733A"/>
<stop offset="1" stop-color="#028437"/>
</linearGradient>
<clipPath id="clip0_2288_3447">
<rect width="12" height="12" fill="white"/>
</clipPath>
</defs>
</svg>
